<?xml version="1.0" encoding="utf-8"?>
<svg xmlns="http://www.w3.org/2000/svg" style="margin: auto; background: none; display: block; shape-rendering: auto;" width="682" height="250" preserveAspectRatio="xMidYMid">
<style type="text/css">
  text {
    text-anchor: middle; font-size: 80px; opacity: 0;
  }
</style>
<g style="transform-origin:341px 125px;transform:scale(1)">
<g transform="translate(341,125)">
  <g transform="translate(0,0)"><g class="path" style="transform: scale(1); transform-origin: -224.02px -4.66146px; animation: 1s linear -0.609231s infinite normal forwards running beat-6c3d3613-b87e-4883-ae9e-fc0ee3755aed;"><path d="M40.78-43.36L40.78-43.36L40.78-43.36Q35.70-48.36 29.53-48.36L29.53-48.36L29.53-48.36Q23.67-48.36 18.28-43.91L18.28-43.91L18.28-43.91Q11.48-38.28 8.91-29.38L8.91-29.38L8.91-29.38Q7.97-26.17 7.97-24.06L7.97-24.06L7.97-24.06Q7.97-21.95 8.13-20.78L8.13-20.78L8.13-20.78Q8.13-13.05 13.36-8.91L13.36-8.91L13.36-8.91Q18.28-5.08 25.94-5.08L25.94-5.08L25.94-5.08Q36.41-5.94 46.02-13.13L46.02-13.13L46.02-13.13Q48.67-15.16 51.64-17.03L51.64-17.03L51.64-17.03Q52.73-17.03 53.87-16.72L53.87-16.72L53.87-16.72Q55-16.41 55-14.92L55-14.92L55-14.92Q47.27-8.20 41.95-5.23L41.95-5.23L41.95-5.23Q32.11 0.08 24.14 0.08L24.14 0.08L24.14 0.08Q23.59 0.08 23.13 0.08L23.13 0.08L23.13 0.08Q14.45 0.08 8.28-5.31L8.28-5.31L8.28-5.31Q1.72-11.02 1.72-19.53L1.72-19.53L1.72-19.53Q1.72-25.94 4.02-31.80L4.02-31.80L4.02-31.80Q6.33-37.66 10.35-42.15L10.35-42.15L10.35-42.15Q14.38-46.64 19.88-49.30L19.88-49.30L19.88-49.30Q25.39-51.95 31.72-51.95L31.72-51.95L31.72-51.95Q37.11-51.95 38.75-50.47L38.75-50.47L38.75-50.47Q40.78-48.67 40.78-43.36" fill="#6933ff" stroke="none" stroke-width="none" transform="translate(-252.3800048828125,21.27353797325722)" style="fill: rgb(105, 51, 255);"></path></g><g class="path" style="transform: scale(1); transform-origin: -175.425px -4.70646px; animation: 1s linear -0.558462s infinite normal forwards running beat-6c3d3613-b87e-4883-ae9e-fc0ee3755aed;"><path d="M95.47-1.09L95.47-1.09L95.47-1.09Q94.77 0.23 91.84 0.23L91.84 0.23L91.84 0.23Q88.91 0.23 88.91-1.88L88.91-1.88L88.91-1.88Q88.91-11.09 88.52-14.53L88.52-14.53L88.52-14.53Q87.81-22.11 85.55-22.66L85.55-22.66L85.55-22.66Q79.92-23.75 76.37-23.75L76.37-23.75L76.37-23.75Q72.81-23.75 70.51-21.60L70.51-21.60L70.51-21.60Q68.20-19.45 66.99-14.49L66.99-14.49L66.99-14.49Q65.78-9.53 65.23-0.55L65.23-0.55L59.22-0.55L59.22-0.55Q59.38-5 59.38-8.83L59.38-8.83L59.38-8.83Q59.38-12.66 59.22-17.93L59.22-17.93L59.22-17.93Q59.06-23.20 58.83-29.45L58.83-29.45L58.83-29.45Q58.44-36.64 58.44-41.60L58.44-41.60L58.44-41.60Q58.44-46.56 59.06-50.70L59.06-50.70L59.06-50.70Q59.84-52.19 61.33-52.19L61.33-52.19L61.33-52.19Q63.13-52.19 64.14-50.90L64.14-50.90L64.14-50.90Q65.16-49.61 65.23-48.59L65.23-48.59L64.84-35.70L64.84-35.70Q64.84-28.44 65.55-24.84L65.55-24.84L65.55-24.84Q72.58-29.53 80.08-29.53L80.08-29.53L80.08-29.53Q82.50-29.53 85.23-29.14L85.23-29.14L85.23-29.14Q91.09-26.09 92.89-22.66L92.89-22.66L92.89-22.66Q93.75-20.86 93.98-18.83L93.98-18.83L93.98-18.83Q94.22-16.80 94.30-14.22L94.30-14.22L94.30-14.22Q94.77-5.31 95.47-1.09" fill="#6933ff" stroke="none" stroke-width="none" transform="translate(-252.3800048828125,21.27353797325722)" style="fill: rgb(35, 188, 149);"></path></g><g class="path" style="transform: scale(1); transform-origin: -135.855px 3.30354px; animation: 1s linear -0.507692s infinite normal forwards running beat-6c3d3613-b87e-4883-ae9e-fc0ee3755aed;"><path d="M129.06-12.97L129.06-12.97L129.06-12.97Q123.20-3.75 113.44-1.56L113.44-1.56L113.44-1.56Q111.17-1.09 109.34-1.09L109.34-1.09L109.34-1.09Q107.50-1.09 106.29-1.13L106.29-1.13L106.29-1.13Q105.08-1.17 103.59-1.48L103.59-1.48L103.59-1.48Q102.11-1.80 100.86-2.50L100.86-2.50L100.86-2.50Q97.97-4.14 97.97-7.11L97.97-7.11L97.97-7.11Q97.66-8.52 97.66-10.27L97.66-10.27L97.66-10.27Q97.66-12.03 98.44-14.92L98.44-14.92L98.44-14.92Q99.22-17.81 101.29-21.17L101.29-21.17L101.29-21.17Q103.36-24.53 106.33-27.34L106.33-27.34L106.33-27.34Q112.50-33.28 119.69-35L119.69-35L119.69-35Q121.80-35.47 123.55-35.47L123.55-35.47L123.55-35.47Q125.31-35.47 126.72-35.23L126.72-35.23L126.72-35.23Q131.25-35.23 132.81-29.06L132.81-29.06L132.81-29.06Q133.83-25.16 134.02-18.16L134.02-18.16L134.02-18.16Q134.22-11.17 134.41-7.38L134.41-7.38L134.41-7.38Q134.61-3.59 135.39-0.47L135.39-0.47L130.78-0.47L130.78-0.47Q130.47-2.58 130.31-4.22L130.31-4.22L130.31-4.22Q130.16-5.86 130-7.27L130-7.27L130-7.27Q129.61-10.55 129.06-12.97zM128.75-25.08L128.75-25.08L128.75-25.08Q128.75-29.61 124.30-29.61L124.30-29.61L124.30-29.61Q123.75-29.69 123.20-29.69L123.20-29.69L123.20-29.69Q117.50-29.69 111.17-24.22L111.17-24.22L111.17-24.22Q108.20-21.72 106.09-18.59L106.09-18.59L106.09-18.59Q102.97-14.14 102.97-10.63L102.97-10.63L102.97-10.63Q102.97-6.02 108.28-5.16L108.28-5.16L108.28-5.16Q115.31-5.31 121.72-11.56L121.72-11.56L121.72-11.56Q124.45-14.30 126.25-17.50L126.25-17.50L126.25-17.50Q128.75-21.80 128.75-25.08" fill="#6933ff" stroke="none" stroke-width="none" transform="translate(-252.3800048828125,21.27353797325722)" style="fill: rgb(105, 51, 255);"></path></g><g class="path" style="transform: scale(1); transform-origin: -93.045px 2.87354px; animation: 1s linear -0.456923s infinite normal forwards running beat-6c3d3613-b87e-4883-ae9e-fc0ee3755aed;"><path d="M177.42-28.52L177.42-28.52L177.42-28.52Q174.14-30.86 168.98-30.86L168.98-30.86L168.98-30.86Q164.14-30.86 160-29.06L160-29.06L160-29.06Q152.19-25.78 149.30-20.63L149.30-20.63L149.30-20.63Q148.05-18.28 148.05-15.63L148.05-15.63L148.05-15.63Q148.05-15.16 148.05-13.01L148.05-13.01L148.05-13.01Q148.05-10.86 148.83-7.23L148.83-7.23L148.83-7.23Q149.61-3.59 149.61 0.16L149.61 0.16L149.61 0.16Q147.97 0.23 146.95 0.55L146.95 0.55L146.95 0.55Q145.94 0.86 145.23 0.86L145.23 0.86L145.23 0.86Q144.53 0.86 144.02 0.23L144.02 0.23L144.02 0.23Q143.52-0.39 142.89-2.19L142.89-2.19L142.89-2.19Q142.81-2.66 142.58-4.84L142.58-4.84L142.58-4.84Q142.34-7.03 141.99-10.16L141.99-10.16L141.99-10.16Q141.64-13.28 141.21-16.99L141.21-16.99L141.21-16.99Q140.78-20.70 140.39-24.30L140.39-24.30L140.39-24.30Q139.53-32.11 139.06-35.78L139.06-35.78L139.06-35.78Q139.06-37.66 141.80-37.66L141.80-37.66L141.80-37.66Q143.44-37.66 144.38-36.29L144.38-36.29L144.38-36.29Q145.31-34.92 145.86-33.16L145.86-33.16L145.86-33.16Q146.41-31.41 146.60-29.69L146.60-29.69L146.60-29.69Q146.80-27.97 146.95-27.27L146.95-27.27L146.95-27.27Q157.27-36.48 172.58-36.48L172.58-36.48L172.58-36.48Q174.30-36.48 176.17-36.41L176.17-36.41L176.17-36.41Q176.64-36.48 177.34-36.48L177.34-36.48L177.34-36.48Q178.05-36.48 178.75-35.55L178.75-35.55L178.75-35.55Q179.61-34.45 179.61-32.89L179.61-32.89L179.61-32.89Q179.61-28.98 177.42-28.52" fill="#6933ff" stroke="none" stroke-width="none" transform="translate(-252.3800048828125,21.27353797325722)" style="fill: rgb(35, 188, 149);"></path></g><g class="path" style="transform: scale(1); transform-origin: -50.585px 21.2735px; animation: 1s linear -0.406154s infinite normal forwards running beat-6c3d3613-b87e-4883-ae9e-fc0ee3755aed;"><path d="M205.78 33.44L205.78 33.44L204.69 33.36L204.69 33.36Q202.34 33.36 199.69 33.67L199.69 33.67L196.72 33.67L196.72 33.67Q192.03 33.67 189.38 31.88L189.38 31.88L189.38 31.88Q187.97 30.94 187.97 29.06L187.97 29.06L205.94 28.20L205.94 28.20Q214.22 27.97 214.22 19.30L214.22 19.30L214.22 19.30Q214.22 18.98 214.22 18.24L214.22 18.24L214.22 18.24Q214.22 17.50 214.22 15L214.22 15L214.61-10.16L214.61-10.16Q214.61-11.48 214.53-12.34L214.53-12.34L214.53-12.34Q201.88-0.55 190.16-0.55L190.16-0.55L190.16-0.55Q189.14-0.55 188.13-0.63L188.13-0.63L188.13-0.63Q182.89-0.63 182.89-5.23L182.89-5.23L182.89-5.23Q183.05-8.83 185-13.16L185-13.16L185-13.16Q186.95-17.50 190.04-21.52L190.04-21.52L190.04-21.52Q193.13-25.55 197.03-28.75L197.03-28.75L197.03-28.75Q203.05-33.67 208.67-33.67L208.67-33.67L208.67-33.67Q215.23-33.67 219.45-26.72L219.45-26.72L219.45-26.72Q220.70-8.13 220.70-0.31L220.70-0.31L220.70-0.31Q220.70 7.50 220.47 12.50L220.47 12.50L220.47 12.50Q220.23 17.50 219.41 21.64L219.41 21.64L219.41 21.64Q218.59 25.78 217.27 28.20L217.27 28.20L217.27 28.20Q215.94 30.63 214.14 31.72L214.14 31.72L214.14 31.72Q211.17 33.44 205.78 33.44zM210.47-27.97L210.47-27.97L210.47-27.97Q209.53-28.28 207.85-28.28L207.85-28.28L207.85-28.28Q206.17-28.28 203.52-26.88L203.52-26.88L203.52-26.88Q200.86-25.47 198.44-23.24L198.44-23.24L198.44-23.24Q196.02-21.02 193.91-18.28L193.91-18.28L193.91-18.28Q188.75-11.56 188.75-7.58L188.75-7.58L188.75-7.58Q188.75-6.33 189.45-5.70L189.45-5.70L189.45-5.70Q190-5.39 190.82-5.39L190.82-5.39L190.82-5.39Q191.64-5.39 193.20-5.66L193.20-5.66L193.20-5.66Q194.77-5.94 197.46-7.07L197.46-7.07L197.46-7.07Q200.16-8.20 203.05-10L203.05-10L203.05-10Q205.94-11.80 208.28-13.98L208.28-13.98L208.28-13.98Q213.75-18.98 213.75-23.75L213.75-23.75L213.75-23.75Q213.75-26.64 210.47-27.97" fill="#6933ff" stroke="none" stroke-width="none" transform="translate(-252.3800048828125,21.27353797325722)" style="fill: rgb(105, 51, 255);"></path></g><g class="path" style="transform: scale(1); transform-origin: -8.90001px 3.18576px; animation: 1s linear -0.355385s infinite normal forwards running beat-6c3d3613-b87e-4883-ae9e-fc0ee3755aed;"><path d="M240.39-5.47L240.39-5.47L240.39-5.47Q247.27-5.47 261.09-11.72L261.09-11.72L261.09-11.72Q261.95-11.72 262.50-11.13L262.50-11.13L262.50-11.13Q263.05-10.55 263.05-9.77L263.05-9.77L263.05-9.77Q259.92-4.45 251.09-1.48L251.09-1.48L251.09-1.48Q242.27 1.48 234.61-0.47L234.61-0.47L234.61-0.47Q225.94-2.73 224.06-10.23L224.06-10.23L224.06-10.23Q223.91-11.72 223.91-14.22L223.91-14.22L223.91-14.22Q223.91-16.72 225.20-20.82L225.20-20.82L225.20-20.82Q226.48-24.92 229.61-28.59L229.61-28.59L229.61-28.59Q232.73-32.27 236.95-34.38L236.95-34.38L236.95-34.38Q241.17-36.48 245.94-36.48L245.94-36.48L245.94-36.48Q250.47-36.48 256.09-33.36L256.09-33.36L256.09-33.36Q258.75-31.88 260.31-30L260.31-30L260.31-30Q261.88-28.13 261.88-26.17L261.88-26.17L261.88-26.17Q261.88-25.63 261.80-25.08L261.80-25.08L261.80-25.08Q261.64-20.31 257.19-19.06L257.19-19.06L257.19-19.06Q255.23-18.52 252.66-18.52L252.66-18.52L241.41-18.98L241.41-18.98Q235.78-18.98 232.81-16.56L232.81-16.56L232.81-16.56Q231.09-15.23 230.39-12.58L230.39-12.58L230.39-12.58Q232.34-5.47 240.39-5.47zM254.34-29.61L254.34-29.61L254.34-29.61Q252.58-30.86 250.70-31.41L250.70-31.41L250.70-31.41Q248.83-31.95 247.58-31.95L247.58-31.95L247.58-31.95Q246.33-31.95 243.52-31.13L243.52-31.13L243.52-31.13Q240.70-30.31 238.52-29.30L238.52-29.30L238.52-29.30Q233.13-26.80 233.13-24.06L233.13-24.06L233.13-24.06Q239.38-23.52 242.50-23.52L242.50-23.52L242.50-23.52Q251.17-23.52 254.22-25L254.22-25L254.22-25Q256.09-25.78 256.09-26.95L256.09-26.95L256.09-26.95Q256.09-28.36 254.34-29.61" fill="#6933ff" stroke="none" stroke-width="none" transform="translate(-252.3800048828125,21.27353797325722)" style="fill: rgb(35, 188, 149);"></path></g><g class="path" style="transform: scale(1); transform-origin: 45.12px 3.45854px; animation: 1s linear -0.304615s infinite normal forwards running beat-6c3d3613-b87e-4883-ae9e-fc0ee3755aed;"><path d="M274.22-1.25L274.22-1.25L274.22-1.25Q271.02 0.08 269.96 0.08L269.96 0.08L269.96 0.08Q268.91 0.08 268.52-0.16L268.52-0.16L268.52-0.16Q268.13-0.39 267.66-1.25L267.66-1.25L267.66-1.25Q267.66-3.83 267.85-7.73L267.85-7.73L267.85-7.73Q268.05-11.64 268.20-16.09L268.20-16.09L268.20-16.09Q268.36-20.55 268.36-25.08L268.36-25.08L268.36-25.08Q268.36-29.61 267.89-33.36L267.89-33.36L267.89-33.36Q267.89-35.86 271.25-35.86L271.25-35.86L271.25-35.86Q272.03-35.86 272.46-33.05L272.46-33.05L272.46-33.05Q272.89-30.23 273.09-28.67L273.09-28.67L273.09-28.67Q273.28-27.11 273.44-26.41L273.44-26.41L273.44-26.41Q275.47-30.08 281.48-32.19L281.48-32.19L281.48-32.19Q284.69-33.20 287.50-33.20L287.50-33.20L287.50-33.20Q290.31-33.20 292.46-32.54L292.46-32.54L292.46-32.54Q294.61-31.88 296.13-30.12L296.13-30.12L296.13-30.12Q297.66-28.36 297.66-25.47L297.66-25.47L297.66-25.47Q299.69-29.30 306.80-32.34L306.80-32.34L306.80-32.34Q313.28-35.23 318.44-35.23L318.44-35.23L318.44-35.23Q325.86-35.23 325.70-29.61L325.70-29.61L327.34-0.55L327.34-0.55Q327.34-0.16 325.08 0L325.08 0L325.08 0Q320.70 0.31 320.70-0.78L320.70-0.78L320.70-0.78Q320.63-2.34 320.63-3.91L320.63-3.91L321.02-16.48L321.02-16.48Q321.02-25.31 319.30-30.47L319.30-30.47L319.30-30.47Q314.14-30.08 311.37-28.79L311.37-28.79L311.37-28.79Q308.59-27.50 306.48-25.59L306.48-25.59L306.48-25.59Q304.38-23.67 302.73-20.47L302.73-20.47L302.73-20.47Q299.06-13.28 299.06-1.41L299.06-1.41L299.06-1.41Q298.59 0.23 296.02 0.23L296.02 0.23L296.02 0.23Q294.30 0.23 293.20-0.35L293.20-0.35L293.20-0.35Q292.11-0.94 292.34-1.41L292.34-1.41L292.34-1.41Q293.83-9.69 293.83-14.30L293.83-14.30L293.83-14.30Q293.83-17.97 293.09-21.29L293.09-21.29L293.09-21.29Q292.34-24.61 291.25-28.91L291.25-28.91L291.25-28.91Q280-28.91 276.09-19.92L276.09-19.92L276.09-19.92Q274.38-15.94 274.18-12.46L274.18-12.46L274.18-12.46Q273.98-8.98 273.98-6.52L273.98-6.52L273.98-6.52Q273.98-4.06 274.22-1.25" fill="#6933ff" stroke="none" stroke-width="none" transform="translate(-252.3800048828125,21.27353797325722)" style="fill: rgb(105, 51, 255);"></path></g><g class="path" style="transform: scale(1); transform-origin: 96.64px 3.18576px; animation: 1s linear -0.253846s infinite normal forwards running beat-6c3d3613-b87e-4883-ae9e-fc0ee3755aed;"><path d="M345.94-5.47L345.94-5.47L345.94-5.47Q352.81-5.47 366.64-11.72L366.64-11.72L366.64-11.72Q367.50-11.72 368.05-11.13L368.05-11.13L368.05-11.13Q368.59-10.55 368.59-9.77L368.59-9.77L368.59-9.77Q365.47-4.45 356.64-1.48L356.64-1.48L356.64-1.48Q347.81 1.48 340.16-0.47L340.16-0.47L340.16-0.47Q331.48-2.73 329.61-10.23L329.61-10.23L329.61-10.23Q329.45-11.72 329.45-14.22L329.45-14.22L329.45-14.22Q329.45-16.72 330.74-20.82L330.74-20.82L330.74-20.82Q332.03-24.92 335.16-28.59L335.16-28.59L335.16-28.59Q338.28-32.27 342.50-34.38L342.50-34.38L342.50-34.38Q346.72-36.48 351.48-36.48L351.48-36.48L351.48-36.48Q356.02-36.48 361.64-33.36L361.64-33.36L361.64-33.36Q364.30-31.88 365.86-30L365.86-30L365.86-30Q367.42-28.13 367.42-26.17L367.42-26.17L367.42-26.17Q367.42-25.63 367.34-25.08L367.34-25.08L367.34-25.08Q367.19-20.31 362.73-19.06L362.73-19.06L362.73-19.06Q360.78-18.52 358.20-18.52L358.20-18.52L346.95-18.98L346.95-18.98Q341.33-18.98 338.36-16.56L338.36-16.56L338.36-16.56Q336.64-15.23 335.94-12.58L335.94-12.58L335.94-12.58Q337.89-5.47 345.94-5.47zM359.88-29.61L359.88-29.61L359.88-29.61Q358.13-30.86 356.25-31.41L356.25-31.41L356.25-31.41Q354.38-31.95 353.13-31.95L353.13-31.95L353.13-31.95Q351.88-31.95 349.06-31.13L349.06-31.13L349.06-31.13Q346.25-30.31 344.06-29.30L344.06-29.30L344.06-29.30Q338.67-26.80 338.67-24.06L338.67-24.06L338.67-24.06Q344.92-23.52 348.05-23.52L348.05-23.52L348.05-23.52Q356.72-23.52 359.77-25L359.77-25L359.77-25Q361.64-25.78 361.64-26.95L361.64-26.95L361.64-26.95Q361.64-28.36 359.88-29.61" fill="#6933ff" stroke="none" stroke-width="none" transform="translate(-252.3800048828125,21.27353797325722)" style="fill: rgb(35, 188, 149);"></path></g><g class="path" style="transform: scale(1); transform-origin: 138.99px 2.01854px; animation: 1s linear -0.203077s infinite normal forwards running beat-6c3d3613-b87e-4883-ae9e-fc0ee3755aed;"><path d="M403.67-12.34L403.75-17.11L403.75-17.11Q403.75-26.41 402.73-30.78L402.73-30.78L402.73-30.78Q403.36-31.95 400.86-31.95L400.86-31.95L400.86-31.95Q398.20-31.95 393.98-30.63L393.98-30.63L393.98-30.63Q389.77-29.30 387.11-27.97L387.11-27.97L387.11-27.97Q380.78-24.92 380.08-22.03L380.08-22.03L380.08-0.78L374.84-0.78L374.84-0.78Q373.83-3.44 373.83-15.70L373.83-15.70L373.83-15.70Q373.83-26.64 374.26-31.80L374.26-31.80L374.26-31.80Q374.69-36.95 374.92-37.66L374.92-37.66L374.92-37.66Q376.95-38.98 378.20-38.98L378.20-38.98L378.20-38.98Q380.16-38.98 380.16-34.38L380.16-34.38L380.16-34.38Q380.16-32.58 379.96-30.90L379.96-30.90L379.96-30.90Q379.77-29.22 379.77-28.59L379.77-28.59L379.77-28.59Q392.42-37.89 399.38-37.89L399.38-37.89L399.38-37.89Q407.27-37.89 408.36-25.16L408.36-25.16L408.36-25.16Q408.83-20.70 408.83-12.81L408.83-12.81L408.75-6.64L408.75-6.64Q408.75-3.20 408.91 0L408.91 0L408.91 0Q408.13 0.47 407.66 0.47L407.66 0.47L407.66 0.47Q407.42 0.39 406.64 0.23L406.64 0.23L406.64 0.23Q405.86 0.08 404.61 0L404.61 0L404.61 0Q403.83-3.13 403.75-6.37L403.75-6.37L403.75-6.37Q403.67-9.61 403.67-12.34L403.67-12.34" fill="#6933ff" stroke="none" stroke-width="none" transform="translate(-252.3800048828125,21.27353797325722)" style="fill: rgb(105, 51, 255);"></path></g><g class="path" style="transform: scale(1); transform-origin: 175.16px -4.70646px; animation: 1s linear -0.152308s infinite normal forwards running beat-6c3d3613-b87e-4883-ae9e-fc0ee3755aed;"><path d="M425.08-7.50L425.08-7.50L425.23-20L425.23-20Q425.23-22.97 424.69-25.08L424.69-25.08L412.58-25.08L412.42-30.47L424.14-30.47L424.14-50.63L424.14-50.63Q424.38-51.33 425.08-52.03L425.08-52.03L425.08-52.03Q426.17-53.13 426.91-53.13L426.91-53.13L426.91-53.13Q427.66-53.13 428.20-52.97L428.20-52.97L428.20-52.97Q428.75-52.81 429.38-51.88L429.38-51.88L429.38-51.88Q430.63-46.72 430.63-36.33L430.63-36.33L430.63-36.33Q430.63-33.75 430.86-31.25L430.86-31.25L430.86-31.25Q433.36-31.56 435.86-31.56L435.86-31.56L435.86-31.56Q435.86-31.56 439.92-31.56L439.92-31.56L439.92-31.56Q441.41-31.56 442.66-31.72L442.66-31.72L442.42-26.09L431.02-26.41L431.41 0.55L431.41 0.55Q430 1.17 428.98 1.17L428.98 1.17L428.98 1.17Q425.08 1.17 425.08-7.50" fill="#6933ff" stroke="none" stroke-width="none" transform="translate(-252.3800048828125,21.27353797325722)" style="fill: rgb(35, 188, 149);"></path></g><g class="path" style="transform: scale(1); transform-origin: 228.28px 18.6985px; animation: 1s linear -0.101538s infinite normal forwards running beat-6c3d3613-b87e-4883-ae9e-fc0ee3755aed;"><path d="M479.14 0.08L479.14 0.08L479.14 0.08Q477.34-0.08 477.34-1.48L477.34-1.48L477.34-1.48Q477.34-3.20 479.30-4.69L479.30-4.69L479.30-4.69Q480.08-5.23 480.51-5.23L480.51-5.23L480.51-5.23Q480.94-5.23 481.17-5.16L481.17-5.16L481.17-5.16Q482.81-5.16 483.40-4.49L483.40-4.49L483.40-4.49Q483.98-3.83 483.98-2.73L483.98-2.73L483.98-2.73Q483.98-1.64 483.52-1.09L483.52-1.09L483.52-1.09Q483.05-0.55 482.34-0.31L482.34-0.31L482.34-0.31Q481.17 0.08 479.14 0.08" fill="#6933ff" stroke="none" stroke-width="none" transform="translate(-252.3800048828125,21.27353797325722)" style="fill: rgb(105, 51, 255);"></path></g><g class="path" style="transform: scale(1); transform-origin: 239.53px 18.6985px; animation: 1s linear -0.0507692s infinite normal forwards running beat-6c3d3613-b87e-4883-ae9e-fc0ee3755aed;"><path d="M490.39 0.08L490.39 0.08L490.39 0.08Q488.59-0.08 488.59-1.48L488.59-1.48L488.59-1.48Q488.59-3.20 490.55-4.69L490.55-4.69L490.55-4.69Q491.33-5.23 491.76-5.23L491.76-5.23L491.76-5.23Q492.19-5.23 492.42-5.16L492.42-5.16L492.42-5.16Q494.06-5.16 494.65-4.49L494.65-4.49L494.65-4.49Q495.23-3.83 495.23-2.73L495.23-2.73L495.23-2.73Q495.23-1.64 494.77-1.09L494.77-1.09L494.77-1.09Q494.30-0.55 493.59-0.31L493.59-0.31L493.59-0.31Q492.42 0.08 490.39 0.08" fill="#6933ff" stroke="none" stroke-width="none" transform="translate(-252.3800048828125,21.27353797325722)" style="fill: rgb(35, 188, 149);"></path></g><g class="path" style="transform: scale(1); transform-origin: 250.78px 18.6985px; animation: 1s linear 0s infinite normal forwards running beat-6c3d3613-b87e-4883-ae9e-fc0ee3755aed;"><path d="M501.64 0.08L501.64 0.08L501.64 0.08Q499.84-0.08 499.84-1.48L499.84-1.48L499.84-1.48Q499.84-3.20 501.80-4.69L501.80-4.69L501.80-4.69Q502.58-5.23 503.01-5.23L503.01-5.23L503.01-5.23Q503.44-5.23 503.67-5.16L503.67-5.16L503.67-5.16Q505.31-5.16 505.90-4.49L505.90-4.49L505.90-4.49Q506.48-3.83 506.48-2.73L506.48-2.73L506.48-2.73Q506.48-1.64 506.02-1.09L506.02-1.09L506.02-1.09Q505.55-0.55 504.84-0.31L504.84-0.31L504.84-0.31Q503.67 0.08 501.64 0.08" fill="#6933ff" stroke="none" stroke-width="none" transform="translate(-252.3800048828125,21.27353797325722)" style="fill: rgb(105, 51, 255);"></path></g></g>
</g>
</g>
<style id="beat-6c3d3613-b87e-4883-ae9e-fc0ee3755aed" data-anikit="">@keyframes beat-6c3d3613-b87e-4883-ae9e-fc0ee3755aed
{
  0% {
    animation-timing-function: cubic-bezier(0.1028,0.2484,0.1372,0.849);
    transform: scale(1);
  }
  34% {
    animation-timing-function: cubic-bezier(0.7116,0.2095,0.8159,0.6876);
    transform: scale(1.2);
  }
  68% {
    animation-timing-function: cubic-bezier(0.1475,0.2888,0.294,0.883);
    transform: scale(1.0268);
  }
  84% {
    animation-timing-function: cubic-bezier(0.8176,0.2193,0.867,0.6889);
    transform: scale(1.0932);
  }
  100% {
    transform: scale(1);
  }
}</style></svg>